<?xml version="1.0" encoding="UTF-8"?>
<svg width="180px" height="62px" viewBox="0 0 180 62" version="1.1" xmlns="http://www.w3.org/2000/svg" xmlns:xlink="http://www.w3.org/1999/xlink">
    <title>logo-grey-en</title>
    <g id="Design" stroke="none" stroke-width="1" fill="none" fill-rule="evenodd">
        <g id="components-ui" transform="translate(-210.000000, -5107.000000)" fill="#1C2B39" fill-rule="nonzero">
            <g id="Group-9-Copy" transform="translate(0.000000, 5075.000000)">
                <g id="logo-grey-en" transform="translate(210.000000, 32.000000)">
                    <path d="M61.7142857,62 L0,62 L0,0 L61.7142857,0 L61.7142857,62 Z M3.21428571,58.7708333 L58.5,58.7708333 L58.5,3.22916667 L3.21428571,3.22916667 L3.21428571,58.7708333 Z" id="Shape"></path>
                    <polygon id="Path" points="43.5857143 15.1125 49.3714286 15.1125 49.3714286 47.1458333 43.5857143 47.1458333"></polygon>
                    <path d="M32.9142857,39.525 C31.2428571,40.6875 29.4428571,41.2041667 27.2571429,41.2041667 C21.6,41.2041667 17.1,36.5541667 17.1,31 C17.1,25.4458333 21.7285714,20.7958333 27.2571429,20.7958333 C29.5714286,20.7958333 31.7571429,21.5708333 33.4285714,22.9916667 L38.5714286,18.7291667 C35.6142857,15.8875 31.5,14.2083333 27,14.2083333 C17.6142857,14.2083333 10.1571429,21.8291667 10.1571429,31.1291667 C10.1571429,40.4291667 17.7428571,48.05 27,48.05 C32.1428571,48.05 36.6428571,45.725 39.7285714,42.2375 C39.6,41.9791667 36.2571429,36.9416667 32.9142857,39.525 L32.9142857,39.525 Z" id="Path"></path>
                    <path d="M80.7428571,34.7458333 L74.4428571,34.7458333 L74.4428571,15.2416667 L80.7428571,15.2416667 C86.2714286,15.2416667 91.2857143,18.8583333 91.2857143,25.0583333 C91.2857143,31.2583333 86.2714286,34.7458333 80.7428571,34.7458333 Z M80.2285714,18.3416667 L78.3,18.3416667 L78.3,31.5166667 L80.2285714,31.5166667 C84.0857143,31.5166667 87.3,29.3208333 87.3,24.9291667 C87.3,20.5375 84.0857143,18.3416667 80.2285714,18.3416667 L80.2285714,18.3416667 Z" id="Shape"></path>
                    <polygon id="Path" points="96.8142857 34.7458333 96.8142857 15.2416667 100.671429 15.2416667 100.671429 34.7458333"></polygon>
                    <path d="M118.8,34.7458333 L113.142857,26.6083333 L111.342857,26.6083333 L111.342857,34.7458333 L107.614286,34.7458333 L107.614286,15.2416667 L114.171429,15.2416667 C117.257143,15.2416667 120.214286,17.1791667 120.214286,20.925 C120.214286,23.3791667 118.8,25.1875 117,25.8333333 L123.428571,34.7458333 L118.8,34.7458333 Z M113.528571,18.3416667 L111.342857,18.3416667 L111.342857,23.5083333 L113.528571,23.5083333 C114.942857,23.5083333 116.485714,22.7333333 116.485714,20.925 C116.357143,19.1166667 115.071429,18.3416667 113.528571,18.3416667 Z" id="Shape"></path>
                    <polygon id="Path" points="127.285714 34.7458333 127.285714 15.2416667 138.214286 15.2416667 138.214286 18.4708333 131.142857 18.4708333 131.142857 23.3791667 137.057143 23.3791667 137.057143 26.6083333 131.142857 26.6083333 131.142857 31.5166667 139.114286 31.5166667 139.114286 34.7458333"></polygon>
                    <path d="M158.785714,19.5041667 C157.885714,18.8583333 156.085714,18.3416667 154.285714,18.3416667 C150.685714,18.3416667 147.342857,20.7958333 147.342857,25.0583333 C147.342857,29.3208333 150.685714,31.775 154.414286,31.775 C156.342857,31.775 157.885714,31.3875 158.914286,30.7416667 L158.528571,34.1 C157.371429,34.6166667 156.085714,34.875 153.771429,34.875 C148.885714,34.875 143.357143,31.5166667 143.357143,24.9291667 C143.357143,18.3416667 148.885714,14.8541667 153.771429,14.8541667 C156.342857,14.8541667 158.142857,15.3708333 159.3,16.1458333 L158.785714,19.5041667 Z" id="Path"></path>
                    <polygon id="Path" points="173.571429 18.3416667 173.571429 34.7458333 169.714286 34.7458333 169.714286 18.3416667 163.8 18.3416667 163.8 15.1125 179.485714 15.1125 179.485714 18.3416667"></polygon>
                    <polygon id="Path" points="74.4428571 49.0833333 74.4428571 40.1708333 75.8571429 40.1708333 75.8571429 49.0833333"></polygon>
                    <path d="M88.5857143,49.2125 L84.4714286,44.6916667 C83.8285714,43.9166667 83.0571429,43.0125 82.4142857,42.3666667 L82.4142857,44.5625 L82.4142857,49.0833333 L81.1285714,49.0833333 L81.1285714,40.1708333 L82.0285714,40.1708333 L85.8857143,44.3041667 C86.4,44.8208333 87.1714286,45.725 87.6857143,46.5 C87.6857143,45.8541667 87.6857143,45.0791667 87.6857143,44.4333333 L87.6857143,40.1708333 L89.1,40.1708333 L89.1,49.3416667 L88.5857143,49.2125 Z" id="Path"></path>
                    <path d="M97.2,49.2125 L96.8142857,49.2125 L93.3428571,40.1708333 L94.7571429,40.1708333 L96.4285714,44.4333333 C96.6857143,45.0791667 96.9428571,45.8541667 97.2,46.5 C97.4571429,45.725 97.7142857,45.0791667 97.9714286,44.4333333 L99.6428571,40.1708333 L100.928571,40.1708333 L97.2,49.2125 Z" id="Path"></path>
                    <polygon id="Path" points="105.557143 49.0833333 105.557143 40.1708333 110.314286 40.1708333 110.314286 41.3333333 106.842857 41.3333333 106.842857 44.0458333 109.671429 44.0458333 109.671429 45.2083333 106.842857 45.2083333 106.842857 47.9208333 110.828571 47.9208333 110.828571 49.0833333"></polygon>
                    <path d="M117.642857,49.0833333 C116.742857,49.0833333 115.842857,48.825 115.328571,48.4375 L115.2,47.0166667 C115.842857,47.5333333 116.742857,47.7916667 117.642857,47.7916667 C118.542857,47.7916667 119.185714,47.275 119.185714,46.5 C119.185714,45.725 118.671429,45.2083333 117.642857,44.95 C116.1,44.4333333 115.2,43.6583333 115.2,42.3666667 C115.2,41.075 116.1,39.9125 118.028571,39.9125 C118.928571,39.9125 119.571429,40.1708333 119.957143,40.4291667 L119.7,41.5916667 C119.442857,41.3333333 118.671429,41.075 118.028571,41.075 C117.128571,41.075 116.614286,41.5916667 116.614286,42.2375 C116.614286,42.8833333 117.128571,43.2708333 118.028571,43.5291667 C119.571429,44.0458333 120.6,44.8208333 120.6,46.3708333 C120.6,48.05 119.571429,49.0833333 117.642857,49.0833333 L117.642857,49.0833333 Z" id="Path"></path>
                    <polygon id="Path" points="128.442857 41.3333333 128.442857 49.0833333 127.028571 49.0833333 127.028571 41.3333333 124.2 41.3333333 124.2 40.1708333 131.271429 40.1708333 131.271429 41.3333333"></polygon>
                    <polygon id="Path" points="136.157143 49.0833333 136.157143 40.1708333 137.442857 40.1708333 137.442857 49.0833333"></polygon>
                    <path d="M150.557143,49.2125 L146.442857,44.6916667 C145.8,43.9166667 145.028571,43.0125 144.385714,42.3666667 L144.385714,44.5625 L144.385714,49.0833333 L143.1,49.0833333 L143.1,40.1708333 L144,40.1708333 L147.857143,44.3041667 C148.371429,44.8208333 149.142857,45.725 149.657143,46.5 C149.657143,45.8541667 149.657143,45.0791667 149.657143,44.4333333 L149.657143,40.1708333 L151.071429,40.1708333 L151.071429,49.3416667 L150.557143,49.2125 Z" id="Path"></path>
                    <path d="M159.814286,49.2125 C157.371429,49.2125 154.928571,47.6625 154.928571,44.5625 C154.928571,41.4625 157.5,39.9125 159.685714,39.9125 C160.971429,39.9125 161.871429,40.1708333 162.514286,40.6875 L162.257143,41.85 C161.614286,41.4625 160.714286,41.075 159.814286,41.075 C158.014286,41.075 156.214286,42.2375 156.214286,44.5625 C156.214286,46.8875 158.014286,48.05 159.814286,48.05 C160.585714,48.05 161.228571,47.9208333 161.742857,47.5333333 L161.742857,45.5958333 L159.685714,45.5958333 L159.685714,44.5625 L163.028571,44.5625 L163.028571,48.3083333 C162.257143,48.9541667 161.1,49.2125 159.814286,49.2125 L159.814286,49.2125 Z" id="Path"></path>
                </g>
            </g>
        </g>
    </g>
</svg>